<svg xmlns="http://www.w3.org/2000/svg" viewBox="0 0 241.77 158.29"><defs><style>.cls-1{fill:#e8e8e8;}</style></defs><g id="Layer_2" data-name="Layer 2"><g id="Layer_1-2" data-name="Layer 1"><path class="cls-1" d="M237.73,29.7A45,45,0,0,0,226.4,13.52,49.07,49.07,0,0,0,209,3.47,69.1,69.1,0,0,0,186.53,0H55.46a70.88,70.88,0,0,0-21,3,51.6,51.6,0,0,0-16.87,8.67A44.33,44.33,0,0,0,5.9,25.76,55.74,55.74,0,0,0,0,45.06v6.7Q2.1,73.93,17.56,85.38T59.62,96.82L3.26,154.27a2.37,2.37,0,0,0,1.7,4H49.64a4,4,0,0,0,2.85-1.18l51.91-51.53a30.23,30.23,0,0,1,21.27-8.76h25.61l0,0h10.26a5.74,5.74,0,0,0,5.75-5.75.5.5,0,0,0,0-.17V67.63l0,0a.39.39,0,0,0,0-.15,5.74,5.74,0,0,0-5.75-5.75h-2.43a1.42,1.42,0,0,0-.3,0H62.62A28.35,28.35,0,0,1,49,58.58q-5.78-3.13-5.78-10.06c0-4.77,1.93-8.21,5.78-10.28a28.13,28.13,0,0,1,13.62-3.12H179.37q9.7,0,14.92,5.07t5.19,15v47.85q0,9.94-5.19,15t-14.92,5.07H133.84a19.21,19.21,0,0,0-14,6.1L97.57,154.32a2.39,2.39,0,0,0,1.79,4h87.17A71.37,71.37,0,0,0,209,154.94,48.28,48.28,0,0,0,226.4,145a44.9,44.9,0,0,0,11.33-16.29,57.32,57.32,0,0,0,4-22.17V51.76A56.41,56.41,0,0,0,237.73,29.7Z"/></g></g></svg>